<svg width="108" height="26" viewBox="0 0 108 26" fill="none" xmlns="http://www.w3.org/2000/svg">
<g id="Group 5">
<path id="Subtract" fill-rule="evenodd" clip-rule="evenodd" d="M24.9775 15.3421C25.0961 14.6505 25.1579 13.9396 25.1579 13.2143C25.1579 6.31074 19.5615 0.714294 12.6579 0.714294C8.47185 0.714294 4.7664 2.77195 2.49781 5.931C3.76552 5.75566 5.01897 5.83693 6.26113 6.15238C9.39452 6.94809 12.0596 9.18119 14.2202 11L14.3922 11.1449C16.6798 13.0713 18.5379 14.636 20.5308 15.3771C21.8223 15.8574 23.2368 16.0099 24.9775 15.3421ZM22.6009 20.7908C20.3171 23.7834 16.713 25.7143 12.6579 25.7143C5.75434 25.7143 0.157898 20.1179 0.157898 13.2143C0.157898 12.8571 0.172878 12.5035 0.202245 12.1539C2.26575 10.7423 3.78813 10.6831 5.03046 10.9986C6.86155 11.4636 8.66432 12.8587 11 14.8251C11.1387 14.9418 11.2794 15.0607 11.4222 15.1814L11.4222 15.1814C13.4727 16.9143 15.9504 19.0083 18.788 20.0636C20.0143 20.5196 21.285 20.7783 22.6009 20.7908Z" fill="#3CDDF3"/>
<g id="sportit">
<path d="M39.5637 20.6175C38.4353 20.6175 37.4586 20.4051 36.6334 19.9804C35.8251 19.5556 35.2104 19.0035 34.7894 18.3239C34.3684 17.6273 34.1579 16.8968 34.1579 16.1322V15.9793H37.5681V16.1322C37.5681 16.591 37.7449 16.9987 38.0985 17.3555C38.4522 17.7123 38.9658 17.8906 39.6394 17.8906C40.1952 17.8906 40.6414 17.7632 40.9782 17.5084C41.3319 17.2366 41.5087 16.8713 41.5087 16.4126C41.5087 16.0048 41.3572 15.682 41.054 15.4442C40.7509 15.2063 40.372 15.0534 39.9173 14.9854L38.4017 14.6796C37.4081 14.4928 36.5071 14.0935 35.6988 13.4819C34.8905 12.8703 34.4863 11.9443 34.4863 10.7041C34.4863 9.42989 34.9494 8.43601 35.8756 7.72245C36.8018 6.9919 37.9891 6.62663 39.4374 6.62663C40.4983 6.62663 41.4161 6.82201 42.1908 7.21277C42.9654 7.60352 43.5548 8.1217 43.959 8.7673C44.3632 9.39591 44.5652 10.0755 44.5652 10.806V10.908H41.1551V10.8315C41.1551 10.4238 41.0035 10.05 40.7004 9.71022C40.3973 9.35344 39.9341 9.17505 39.311 9.17505C38.789 9.17505 38.368 9.31096 38.048 9.5828C37.7281 9.85463 37.5681 10.2114 37.5681 10.6531C37.5681 11.0609 37.7281 11.3837 38.048 11.6215C38.3848 11.8594 38.7974 12.0208 39.2858 12.1057L40.953 12.437C42.0308 12.6749 42.9401 13.1081 43.6811 13.7367C44.4221 14.3483 44.7926 15.2233 44.7926 16.3616C44.7926 17.2111 44.5652 17.9586 44.1106 18.6042C43.6559 19.2498 43.0243 19.751 42.216 20.1078C41.4245 20.4476 40.5404 20.6175 39.5637 20.6175Z" fill="white"/>
<path d="M53.991 20.6175C52.8627 20.6175 51.9786 20.3541 51.3386 19.8274C50.6987 19.3008 50.2272 18.7231 49.924 18.0945H49.7219V25.7143H46.2107V6.95792H49.7219V9.04763H49.924C50.1935 8.46999 50.6482 7.92632 51.2881 7.41664C51.928 6.88997 52.8206 6.62663 53.9657 6.62663C55.6666 6.62663 56.9717 7.26373 57.8811 8.53794C58.8073 9.81215 59.2704 11.5196 59.2704 13.6603C59.2704 15.75 58.8073 17.4319 57.8811 18.7061C56.9717 19.9803 55.675 20.6175 53.991 20.6175ZM52.7279 17.8142C53.7384 17.8142 54.4878 17.4064 54.9761 16.591C55.4813 15.7755 55.734 14.7901 55.734 13.6348C55.734 12.5135 55.4813 11.5536 54.9761 10.7551C54.4878 9.93958 53.7384 9.53183 52.7279 9.53183C51.7344 9.53183 50.985 9.93958 50.4798 10.7551C49.9745 11.5706 49.7219 12.539 49.7219 13.6603C49.7219 14.7986 49.9745 15.7755 50.4798 16.591C50.985 17.4064 51.7344 17.8142 52.7279 17.8142Z" fill="white"/>
<path d="M66.9526 20.6175C65.5548 20.6175 64.376 20.3032 63.4161 19.6745C62.4731 19.0289 61.7658 18.1795 61.2942 17.1261C60.8227 16.0728 60.5869 14.9175 60.5869 13.6603C60.5869 12.403 60.8143 11.2478 61.269 10.1944C61.7405 9.12408 62.4562 8.26611 63.4161 7.62051C64.376 6.97491 65.5548 6.65211 66.9526 6.65211C68.3503 6.65211 69.5292 6.97491 70.4891 7.62051C71.449 8.24912 72.1647 9.0901 72.6362 10.1434C73.1077 11.1968 73.3435 12.3521 73.3435 13.6093C73.3435 14.8665 73.1077 16.0303 72.6362 17.1006C72.1647 18.154 71.449 19.0035 70.4891 19.6491C69.5292 20.2947 68.3503 20.6175 66.9526 20.6175ZM66.9526 17.7632C67.9293 17.7632 68.6619 17.3725 69.1503 16.591C69.6555 15.7924 69.9081 14.7986 69.9081 13.6093C69.9081 12.42 69.6555 11.4431 69.1503 10.6786C68.6619 9.8971 67.9293 9.50634 66.9526 9.50634C65.9759 9.50634 65.2433 9.8971 64.7549 10.6786C64.2666 11.4431 64.0224 12.42 64.0224 13.6093C64.0224 14.7986 64.2666 15.7924 64.7549 16.591C65.2601 17.3725 65.9927 17.7632 66.9526 17.7632Z" fill="white"/>
<path d="M75.0338 6.95792H78.4945V9.0986H78.6713C78.8902 8.50396 79.2944 8.00278 79.8838 7.59503C80.4732 7.17029 81.2311 6.95792 82.1573 6.95792C82.5109 6.95792 82.814 6.9919 83.0667 7.05986L82.9151 10.2964C82.4941 10.1774 82.0478 10.118 81.5763 10.118C80.5322 10.118 79.7575 10.3983 79.2523 10.9589C78.7471 11.5026 78.4945 12.4115 78.4945 13.6858V20.4136H75.0338V6.95792Z" fill="white"/>
<path d="M88.8189 9.71022V15.699C88.8189 16.2936 88.8442 16.7354 88.8947 17.0242C88.9621 17.313 89.1305 17.5424 89.3999 17.7123C89.6694 17.8822 90.1072 17.9671 90.7135 17.9671C91.0671 17.9671 91.4292 17.9331 91.7997 17.8652V20.3116C91.6144 20.3456 91.2776 20.3881 90.7893 20.4391C90.3177 20.49 89.8546 20.5155 89.3999 20.5155C88.1706 20.5155 87.2528 20.3371 86.6465 19.9804C86.0571 19.6066 85.6866 19.1479 85.5351 18.6042C85.3835 18.0436 85.3077 17.33 85.3077 16.4635V9.71022H83.0848V6.95792H85.333V2.57464H88.8189V6.95792H91.7997V9.71022H88.8189Z" fill="white"/>
<path d="M93.9695 6.95792H97.4555V20.4136H93.9695V6.95792ZM95.6873 4.63886C95.1315 4.63886 94.6684 4.45198 94.2979 4.07821C93.9274 3.68745 93.7422 3.22024 93.7422 2.67658C93.7422 2.11593 93.9274 1.64872 94.2979 1.27495C94.6684 0.901179 95.1315 0.714294 95.6873 0.714294C96.243 0.714294 96.7061 0.909673 97.0766 1.30043C97.4471 1.6742 97.6323 2.13292 97.6323 2.67658C97.6323 3.22024 97.4471 3.68745 97.0766 4.07821C96.7061 4.45198 96.243 4.63886 95.6873 4.63886Z" fill="white"/>
<path d="M104.861 9.71022V15.699C104.861 16.2936 104.887 16.7354 104.937 17.0242C105.005 17.313 105.173 17.5424 105.442 17.7123C105.712 17.8822 106.15 17.9671 106.756 17.9671C107.11 17.9671 107.472 17.9331 107.842 17.8652V20.3116C107.657 20.3456 107.32 20.3881 106.832 20.4391C106.36 20.49 105.897 20.5155 105.442 20.5155C104.213 20.5155 103.295 20.3371 102.689 19.9804C102.1 19.6066 101.729 19.1479 101.577 18.6042C101.426 18.0436 101.35 17.33 101.35 16.4635V9.71022H99.1272V6.95792H101.375V2.57464H104.861V6.95792H107.842V9.71022H104.861Z" fill="white"/>
</g>
</g>
</svg>
